<?xml version="1.0" encoding="UTF-8"?>
<svg version="1.1" xmlns="http://www.w3.org/2000/svg" width="32" height="32">
<path d="M0 0 C10.56 0 21.12 0 32 0 C32 10.56 32 21.12 32 32 C21.44 32 10.88 32 0 32 C0 21.44 0 10.88 0 0 Z " fill="#D1D3D1" transform="translate(0,0)"/>
<path d="M0 0 C9.9 0 19.8 0 30 0 C30 6.6 30 13.2 30 20 C29.34 19.67 28.68 19.34 28 19 C28 17.02 28 15.04 28 13 C22.39 13 16.78 13 11 13 C10.67 15.31 10.34 17.62 10 20 C9.34 20 8.68 20 8 20 C7.94392578 18.86111328 7.94392578 18.86111328 7.88671875 17.69921875 C7.78810547 16.20841797 7.78810547 16.20841797 7.6875 14.6875 C7.62949219 13.70136719 7.57148438 12.71523437 7.51171875 11.69921875 C6.95377187 8.75615543 6.31459868 7.81817001 4 6 C3.67 7.65 3.34 9.3 3 11 C3.99 11 4.98 11 6 11 C6 12.65 6 14.3 6 16 C5.01 16 4.02 16 3 16 C3 16.66 3 17.32 3 18 C3.99 18.33 4.98 18.66 6 19 C5.38722388 21.96175123 4.74627478 23.38058783 3 26 C2.34 26 1.68 26 1 26 C0.67 27.32 0.34 28.64 0 30 C0 20.1 0 10.2 0 0 Z " fill="#FEFEFE" transform="translate(1,1)"/>
<path d="M0 0 C10.56 0 21.12 0 32 0 C32 10.56 32 21.12 32 32 C21.44 32 10.88 32 0 32 C0 21.44 0 10.88 0 0 Z M1 1 C1 10.9 1 20.8 1 31 C1.33 29.68 1.66 28.36 2 27 C2.99 26.67 3.98 26.34 5 26 C7.30671915 23.28450846 7.30671915 23.28450846 6.625 20.8125 C6.41875 20.214375 6.2125 19.61625 6 19 C5.34 19 4.68 19 4 19 C4 18.34 4 17.68 4 17 C4.99 16.67 5.98 16.34 7 16 C7 14.68 7 13.36 7 12 C6.01 12 5.02 12 4 12 C4.33 10.35 4.66 8.7 5 7 C7.07670092 8.68988817 7.92334628 9.59786013 8.43237305 12.26831055 C8.45855713 13.13238525 8.48474121 13.99645996 8.51171875 14.88671875 C8.54716797 15.82451172 8.58261719 16.76230469 8.61914062 17.72851562 C8.64169922 18.70498047 8.66425781 19.68144531 8.6875 20.6875 C8.72166016 21.67556641 8.75582031 22.66363281 8.79101562 23.68164062 C8.87350538 26.12098053 8.94265068 28.55996063 9 31 C11.31 31 13.62 31 16 31 C14.68 30.01 13.36 29.02 12 28 C12.33 27.67 12.66 27.34 13 27 C15.0625 27.4375 15.0625 27.4375 17 28 C17 28.66 17 29.32 17 30 C20.04913228 31.01111093 20.04913228 31.01111093 23 30 C23 29.34 23 28.68 23 28 C24.65 27.34 26.3 26.68 28 26 C27 29 27 29 24 31 C26.31 31 28.62 31 31 31 C31 21.1 31 11.2 31 1 C21.1 1 11.2 1 1 1 Z " fill="#040707" transform="translate(0,0)"/>
<path d="M0 0 C0.79792969 0.00386719 1.59585937 0.00773438 2.41796875 0.01171875 C3.21589844 0.00785156 4.01382812 0.00398437 4.8359375 0 C10.79136108 0.01011108 10.79136108 0.01011108 11.91796875 1.13671875 C11.95877658 3.13630239 11.96051231 5.13717129 11.91796875 7.13671875 C7.46296875 7.63171875 7.46296875 7.63171875 2.91796875 8.13671875 C2.91796875 8.79671875 2.91796875 9.45671875 2.91796875 10.13671875 C2.25796875 10.13671875 1.59796875 10.13671875 0.91796875 10.13671875 C0.91796875 9.47671875 0.91796875 8.81671875 0.91796875 8.13671875 C-1.72203125 7.80671875 -4.36203125 7.47671875 -7.08203125 7.13671875 C-7.12457481 5.13717129 -7.12283908 3.13630239 -7.08203125 1.13671875 C-5.19650595 -0.74880655 -2.50434294 0.00425186 0 0 Z " fill="#1F201D" transform="translate(18.08203125,12.86328125)"/>
<path d="M0 0 C0.99 0.66 1.98 1.32 3 2 C3.34057617 4.33837891 3.34057617 4.33837891 3.29296875 7.2265625 C3.28330078 8.2578125 3.27363281 9.2890625 3.26367188 10.3515625 C3.23853516 11.43179687 3.21339844 12.51203125 3.1875 13.625 C3.17396484 14.71296875 3.16042969 15.8009375 3.14648438 16.921875 C3.11104754 19.61507409 3.06164331 22.30729374 3 25 C1.35 25 -0.3 25 -2 25 C-1.45276317 21.62537285 -0.9451 19.91765 1 17 C1 16.01 1 15.02 1 14 C0.34 13.67 -0.32 13.34 -1 13 C-0.67 11.68 -0.34 10.36 0 9 C0.66 9 1.32 9 2 9 C2 8.01 2 7.02 2 6 C1.01 6 0.02 6 -1 6 C-1.625 4.125 -1.625 4.125 -2 2 C-1.34 1.34 -0.68 0.68 0 0 Z " fill="#21356F" transform="translate(5,6)"/>
<path d="M0 0 C0.66 0 1.32 0 2 0 C2 0.66 2 1.32 2 2 C2.99 2 3.98 2 5 2 C5 3.65 5 5.3 5 7 C4.01 7 3.02 7 2 7 C2 7.66 2 8.32 2 9 C2.99 9.33 3.98 9.66 5 10 C4.38722388 12.96175123 3.74627478 14.38058783 2 17 C1.34 17 0.68 17 0 17 C-0.33 18.32 -0.66 19.64 -1 21 C-0.67 14.07 -0.34 7.14 0 0 Z " fill="#A79374" transform="translate(2,10)"/>
<path d="M0 0 C0.70125 0.495 1.4025 0.99 2.125 1.5 C5.47730606 3.24902925 7.26724559 3.4665943 11 3 C13.81780534 1.61114752 13.81780534 1.61114752 16 0 C17 1 17 1 17.0625 3.5625 C17.041875 4.366875 17.02125 5.17125 17 6 C10.93303301 6.77040851 5.11485027 7.09706112 -1 7 C-1.04254356 5.00045254 -1.04080783 2.99958364 -1 1 C-0.67 0.67 -0.34 0.34 0 0 Z " fill="#E6B05A" transform="translate(12,7)"/>
<path d="M0 0 C2.05078125 0.03255208 4.1015625 0.06510417 6.15234375 0.09765625 C5.22581674 1.27305621 4.28570988 2.43776202 3.33984375 3.59765625 C2.81777344 4.24734375 2.29570312 4.89703125 1.7578125 5.56640625 C0.15234375 7.09765625 0.15234375 7.09765625 -2.84765625 7.09765625 C-2.89019981 5.09810879 -2.88846408 3.09723989 -2.84765625 1.09765625 C-1.84765625 0.09765625 -1.84765625 0.09765625 0 0 Z " fill="#51524F" transform="translate(13.84765625,12.90234375)"/>
<path d="M0 0 C0.33 0.66 0.66 1.32 1 2 C1.99 2 2.98 2 4 2 C4 3.65 4 5.3 4 7 C3.01 7 2.02 7 1 7 C0.67 8.32 0.34 9.64 0 11 C0 7.37 0 3.74 0 0 Z " fill="#ADBADA" transform="translate(3,10)"/>
<path d="M0 0 C0.99 0.66 1.98 1.32 3 2 C3.1875 5.125 3.1875 5.125 3 8 C2.67 7.34 2.34 6.68 2 6 C1.01 6 0.02 6 -1 6 C-1.625 4.125 -1.625 4.125 -2 2 C-1.34 1.34 -0.68 0.68 0 0 Z " fill="#314880" transform="translate(5,6)"/>
<path d="M0 0 C0.33 0 0.66 0 1 0 C1 2.64 1 5.28 1 8 C-1.31 8 -3.62 8 -6 8 C-5.071875 7.4121875 -5.071875 7.4121875 -4.125 6.8125 C-1.67503632 4.72282509 -0.98120002 3.02536673 0 0 Z " fill="#E9CB9B" transform="translate(30,23)"/>
<path d="M0 0 C2 1 2 1 2.9375 3.4375 C3.84547289 6.29863959 3.84547289 6.29863959 7 8 C4.69 8 2.38 8 0 8 C0 5.36 0 2.72 0 0 Z " fill="#E9CB9B" transform="translate(9,23)"/>
<path d="M0 0 C2.64 0.66 5.28 1.32 8 2 C7.01 2.495 7.01 2.495 6 3 C6.33 3.99 6.66 4.98 7 6 C4.0625 5.25 4.0625 5.25 1 4 C0.67 2.68 0.34 1.36 0 0 Z " fill="#1B2D60" transform="translate(11,25)"/>
<path d="M0 0 C0.33 0.99 0.66 1.98 1 3 C-1.375 4.5625 -1.375 4.5625 -4 6 C-4.66 5.67 -5.32 5.34 -6 5 C-5.67 4.34 -5.34 3.68 -5 3 C-5.66 2.67 -6.32 2.34 -7 2 C-4.69 1.34 -2.38 0.68 0 0 Z " fill="#1B2D60" transform="translate(28,25)"/>
<path d="M0 0 C0.33 0 0.66 0 1 0 C1 1.98 1 3.96 1 6 C-0.98 6 -2.96 6 -5 6 C-3.35830472 3.97945196 -1.69088222 1.97956942 0 0 Z " fill="#040707" transform="translate(29,14)"/>
<path d="M0 0 C1.2065625 0.0309375 1.2065625 0.0309375 2.4375 0.0625 C0.79580472 2.08304804 -0.87161778 4.08293058 -2.5625 6.0625 C-2.8925 6.0625 -3.2225 6.0625 -3.5625 6.0625 C-3.605221 4.39638095 -3.60313832 2.72867115 -3.5625 1.0625 C-2.5625 0.0625 -2.5625 0.0625 0 0 Z " fill="#040707" transform="translate(14.5625,12.9375)"/>
</svg>
